<svg width="84" height="84" viewBox="0 0 84 84" fill="none" xmlns="http://www.w3.org/2000/svg">
<g clip-path="url(#clip0_23_626)">
<path d="M41.7476 83.2433C38.9218 83.2441 36.1032 82.9609 33.3344 82.398C27.9942 81.3076 22.9218 79.1795 18.4064 76.1351C11.6942 71.6175 6.44017 65.2561 3.28098 57.8216C2.21474 55.3036 1.40113 52.6866 0.852061 50.0088C-0.278812 44.4735 -0.278812 38.7677 0.852061 33.2323C1.9448 27.909 4.07803 22.8523 7.13007 18.3507C11.6613 11.6587 18.0419 6.42047 25.4988 3.27078C28.0244 2.20774 30.6493 1.39658 33.3351 0.84916C38.8872 -0.278313 44.6102 -0.278313 50.1623 0.84916C55.5016 1.93861 60.5735 4.06543 65.0888 7.10829C71.8009 11.6259 77.0549 17.9874 80.2141 25.4218C81.2804 27.9398 82.094 30.5568 82.643 33.2346C83.7739 38.7699 83.7739 44.4758 82.643 50.0111C81.5493 55.3352 79.4148 60.3924 76.3612 64.8942C71.83 71.5862 65.4494 76.8244 57.9925 79.9741C55.4669 81.0372 52.842 81.8483 50.1562 82.3958C47.389 82.9591 44.5719 83.243 41.7476 83.2433ZM41.7476 3.17467C39.1372 3.17402 36.5335 3.43566 33.9758 3.95565C29.0429 4.96291 24.3573 6.92877 20.1863 9.74105C13.9864 13.9137 9.13315 19.7893 6.21467 26.6561C5.22867 28.982 4.47608 31.3995 3.96792 33.8733C2.92329 38.9864 2.92329 44.257 3.96792 49.3701C4.97823 54.2882 6.95002 58.9597 9.77077 63.1181C13.9562 69.2995 19.8498 74.1382 26.7376 77.0478C29.0705 78.0308 31.4953 78.7811 33.9765 79.2878C39.1051 80.3292 44.3916 80.3292 49.5201 79.2878C54.453 78.2805 59.1386 76.3146 63.3096 73.5023C69.5096 69.3295 74.3628 63.4536 77.2812 56.5866C78.2672 54.2607 79.0198 51.8431 79.528 49.3694C80.5726 44.2563 80.5726 38.9856 79.528 33.8725C78.5176 28.9545 76.5458 24.283 73.7251 20.1245C69.5396 13.9434 63.646 9.10503 56.7583 6.19565C54.4254 5.21261 52.0006 4.46228 49.5194 3.95565C46.9616 3.43566 44.3579 3.17402 41.7476 3.17467Z" fill="black"/>
<path d="M22.2402 61.2648L39.0636 23.0697H42.9703L62.0662 61.2648H56.126L41.3361 30.184L28.2602 61.2648H22.2402Z" fill="black"/>
</g>
<defs>
<clipPath id="clip0_23_626">
<rect width="237" height="84" fill="white"/>
</clipPath>
</defs>
</svg>
