<svg width="237" height="84" viewBox="0 0 237 84" fill="none" xmlns="http://www.w3.org/2000/svg">
<g clip-path="url(#clip0_23_626)">
<path d="M41.7476 83.2433C38.9218 83.2441 36.1032 82.9609 33.3344 82.398C27.9942 81.3076 22.9218 79.1795 18.4064 76.1351C11.6942 71.6175 6.44017 65.2561 3.28098 57.8216C2.21474 55.3036 1.40113 52.6866 0.852061 50.0088C-0.278812 44.4735 -0.278812 38.7677 0.852061 33.2323C1.9448 27.909 4.07803 22.8523 7.13007 18.3507C11.6613 11.6587 18.0419 6.42047 25.4988 3.27078C28.0244 2.20774 30.6493 1.39658 33.3351 0.84916C38.8872 -0.278313 44.6102 -0.278313 50.1623 0.84916C55.5016 1.93861 60.5735 4.06543 65.0888 7.10829C71.8009 11.6259 77.0549 17.9874 80.2141 25.4218C81.2804 27.9398 82.094 30.5568 82.643 33.2346C83.7739 38.7699 83.7739 44.4758 82.643 50.0111C81.5493 55.3352 79.4148 60.3924 76.3612 64.8942C71.83 71.5862 65.4494 76.8244 57.9925 79.9741C55.4669 81.0372 52.842 81.8483 50.1562 82.3958C47.389 82.9591 44.5719 83.243 41.7476 83.2433ZM41.7476 3.17467C39.1372 3.17402 36.5335 3.43566 33.9758 3.95565C29.0429 4.96291 24.3573 6.92877 20.1863 9.74105C13.9864 13.9137 9.13315 19.7893 6.21467 26.6561C5.22867 28.982 4.47608 31.3995 3.96792 33.8733C2.92329 38.9864 2.92329 44.257 3.96792 49.3701C4.97823 54.2882 6.95002 58.9597 9.77077 63.1181C13.9562 69.2995 19.8498 74.1382 26.7376 77.0478C29.0705 78.0308 31.4953 78.7811 33.9765 79.2878C39.1051 80.3292 44.3916 80.3292 49.5201 79.2878C54.453 78.2805 59.1386 76.3146 63.3096 73.5023C69.5096 69.3295 74.3628 63.4536 77.2812 56.5866C78.2672 54.2607 79.0198 51.8431 79.528 49.3694C80.5726 44.2563 80.5726 38.9856 79.528 33.8725C78.5176 28.9545 76.5458 24.283 73.7251 20.1245C69.5396 13.9434 63.646 9.10503 56.7583 6.19565C54.4254 5.21261 52.0006 4.46228 49.5194 3.95565C46.9616 3.43566 44.3579 3.17402 41.7476 3.17467Z" fill="black"/>
<path d="M22.2402 61.2648L39.0636 23.0697H42.9703L62.0662 61.2648H56.126L41.3361 30.184L28.2602 61.2648H22.2402Z" fill="black"/>
<path d="M107.147 39.4861C107.185 40.1493 107.064 40.8119 106.794 41.4193C106.524 42.0266 106.113 42.5613 105.596 42.9792C104.292 43.8731 102.724 44.3031 101.145 44.1999H99.3806V50.0814H97.6348V35.1286H101.523C105.272 35.1286 107.147 36.5811 107.147 39.4861ZM99.3806 42.7083H100.95C102.118 42.801 103.288 42.5407 104.305 41.9614C104.663 41.6789 104.945 41.3124 105.126 40.8947C105.306 40.477 105.381 40.0211 105.341 39.5678C105.372 39.1481 105.299 38.7274 105.129 38.3423C104.959 37.9571 104.698 37.6192 104.367 37.3581C103.456 36.8049 102.394 36.5507 101.331 36.6316H99.3806V42.7083ZM119.173 50.0829H110.812V35.1286H119.173V36.6732H112.556V41.4907H118.773V43.0246H112.556V48.5278H119.173V50.0829ZM127.64 50.0829H125.894V36.6732H121.145V35.1286H132.39V36.6732H127.64V50.0829ZM143.534 50.0829H135.172V35.1286H143.534V36.6732H136.917V41.4907H143.134V43.0246H136.917V48.5278H143.534V50.0829ZM149.127 43.8639V50.0829H147.381V35.1286H151.495C153.335 35.1286 154.695 35.4798 155.574 36.1821C156.026 36.5714 156.381 37.0609 156.61 37.6115C156.839 38.1621 156.936 38.7584 156.892 39.3529C156.892 41.3305 155.887 42.6675 153.876 43.3637L157.949 50.0837H155.889L152.257 43.8646L149.127 43.8639ZM149.127 42.3708H151.517C152.478 42.4498 153.436 42.1912 154.226 41.6398C154.525 41.3616 154.758 41.02 154.907 40.6402C155.056 40.2603 155.118 39.852 155.087 39.4452C155.124 39.0447 155.064 38.6413 154.911 38.269C154.759 37.8968 154.518 37.5669 154.21 37.3073C153.362 36.8028 152.378 36.574 151.394 36.6528H149.127V42.3708Z" fill="black"/>
<path d="M182.945 50.2925V35.3375H184.691V50.2918L182.945 50.2925ZM197.69 50.2925H189.329V35.3375H197.69V36.8821H191.073V41.6996H197.29V43.2335H191.073V48.7367H197.69V50.2925ZM201.539 50.2925V35.3375H203.285V48.717H209.903V50.2925H201.539ZM212.971 50.2925V35.3375H214.716V48.717H221.334V50.2925H212.971ZM237.001 42.7954C237.118 44.8377 236.469 46.8505 235.179 48.4415C234.54 49.1356 233.754 49.6799 232.879 50.0354C232.004 50.3909 231.06 50.5487 230.117 50.4976C229.168 50.5553 228.218 50.4042 227.334 50.055C226.45 49.7059 225.654 49.1672 225.002 48.4771C223.802 47.1301 223.202 45.2293 223.202 42.7749C223.202 40.3407 223.804 38.4536 225.007 37.1136C225.664 36.4259 226.463 35.8896 227.349 35.5424C228.235 35.1952 229.187 35.0455 230.137 35.1037C231.077 35.0523 232.018 35.2089 232.89 35.5621C233.763 35.9153 234.546 36.4565 235.185 37.1469C236.474 38.7389 237.121 40.7528 237.001 42.7954ZM225.048 42.7954C225.048 44.8204 225.481 46.3564 226.346 47.4032C226.811 47.9366 227.393 48.3557 228.047 48.6281C228.701 48.9004 229.409 49.0187 230.117 48.9735C230.823 49.022 231.531 48.9059 232.185 48.6343C232.838 48.3626 233.419 47.943 233.882 47.4085C234.73 46.3652 235.154 44.8265 235.154 42.7923C235.154 40.7809 234.732 39.255 233.887 38.2147C233.427 37.6823 232.848 37.2641 232.197 36.9934C231.547 36.7227 230.841 36.6068 230.138 36.655C229.427 36.6086 228.716 36.7261 228.058 36.9985C227.401 37.2708 226.815 37.6906 226.347 38.2253C225.395 39.5522 224.936 41.168 225.048 42.7954Z" fill="black"/>
<path d="M164.191 50.1139L170.71 35.3148H172.224L179.623 50.1139H177.321L171.591 38.0709L166.524 50.1139H164.191Z" fill="black"/>
</g>
<defs>
<clipPath id="clip0_23_626">
<rect width="237" height="84" fill="white"/>
</clipPath>
</defs>
</svg>
